<svg xmlns="http://www.w3.org/2000/svg" viewBox="0 0 64 64">
  <defs>
    <linearGradient id="bg" x1="8" y1="6" x2="56" y2="58" gradientUnits="userSpaceOnUse">
      <stop offset="0" stop-color="#0f172a"/>
      <stop offset="1" stop-color="#1d4ed8"/>
    </linearGradient>
    <linearGradient id="panel" x1="18" y1="18" x2="46" y2="46" gradientUnits="userSpaceOnUse">
      <stop offset="0" stop-color="#eff6ff"/>
      <stop offset="1" stop-color="#bfdbfe"/>
    </linearGradient>
  </defs>
  <rect x="6" y="6" width="52" height="52" rx="14" fill="url(#bg)"/>
  <path d="M32 14l15 6v11c0 10-5.8 18.1-15 20.9C22.8 49.1 17 41 17 31V20l15-6z" fill="url(#panel)"/>
  <circle cx="24" cy="26" r="3.5" fill="#2563eb"/>
  <circle cx="40" cy="26" r="3.5" fill="#f59e0b"/>
  <circle cx="24" cy="39" r="3.5" fill="#10b981"/>
  <rect x="29" y="24.5" width="6" height="3" rx="1.5" fill="#2563eb"/>
  <rect x="22.5" y="31" width="3" height="4.5" rx="1.5" fill="#10b981"/>
  <rect x="38.5" y="31" width="3" height="4.5" rx="1.5" fill="#f59e0b"/>
  <circle cx="32" cy="39" r="5.5" fill="#ef4444"/>
  <path d="M32 35.3a2.7 2.7 0 0 0-2.7 2.7v1.2h-1v4.8h7.4v-4.8h-1V38a2.7 2.7 0 0 0-2.7-2.7zm1.1 3.9h-2.2V38a1.1 1.1 0 1 1 2.2 0v1.2z" fill="#fff"/>
</svg>
